<mxfile modified="2021-09-07T13:35:00.111Z" host="app.diagrams.net" agent="5.0 (X11)" etag="h99pbD-Z2n34H3lKLE7W" version="15.1.0" type="github">
  <diagram id="f106602c-feb2-e66a-4537-3a34d633f6aa" name="Page-1">
    <mxGraphModel dx="796" dy="481" grid="1" gridSize="10" guides="1" tooltips="1" connect="1" arrows="1" fold="1" page="1" pageScale="1" pageWidth="1169" pageHeight="827" background="none" math="0" shadow="0">
      <root>
        <mxCell id="0" />
        <mxCell id="1" parent="0" />
        <mxCell id="14" value="&lt;b&gt;Google &lt;/b&gt;Cloud Platform" style="fillColor=#F6F6F6;strokeColor=none;shadow=0;gradientColor=none;fontSize=14;align=left;spacing=10;fontColor=#717171;9E9E9E;verticalAlign=top;spacingTop=-4;fontStyle=0;spacingLeft=40;html=1;" parent="1" vertex="1">
          <mxGeometry x="305" y="100" width="680" height="480" as="geometry" />
        </mxCell>
        <mxCell id="15" value="" style="shape=mxgraph.gcp2.google_cloud_platform;fillColor=#F6F6F6;strokeColor=none;shadow=0;gradientColor=none;" parent="14" vertex="1">
          <mxGeometry width="23" height="20" relative="1" as="geometry">
            <mxPoint x="98" y="10" as="offset" />
          </mxGeometry>
        </mxCell>
        <mxCell id="756" value="Users" style="rounded=1;absoluteArcSize=1;arcSize=2;html=1;strokeColor=none;gradientColor=none;shadow=0;dashed=0;strokeColor=none;fontSize=12;fontColor=#9E9E9E;align=left;verticalAlign=top;spacing=10;spacingTop=-4;fillColor=#F1F8E9;" parent="1" vertex="1">
          <mxGeometry x="1018" y="290" width="90" height="190" as="geometry" />
        </mxCell>
        <mxCell id="754" value="us-central1-f" style="rounded=1;absoluteArcSize=1;arcSize=2;html=1;strokeColor=none;gradientColor=none;shadow=0;dashed=0;strokeColor=none;fontSize=12;fontColor=#9E9E9E;align=left;verticalAlign=top;spacing=10;spacingTop=-4;fillColor=#E1F5FE;" parent="1" vertex="1">
          <mxGeometry x="608" y="440" width="175" height="120" as="geometry" />
        </mxCell>
        <mxCell id="753" value="us-east1-d" style="rounded=1;absoluteArcSize=1;arcSize=2;html=1;strokeColor=none;gradientColor=none;shadow=0;dashed=0;strokeColor=none;fontSize=12;fontColor=#9E9E9E;align=left;verticalAlign=top;spacing=10;spacingTop=-4;fillColor=#E1F5FE;" parent="1" vertex="1">
          <mxGeometry x="609" y="170" width="180" height="220" as="geometry" />
        </mxCell>
        <mxCell id="757" style="edgeStyle=orthogonalEdgeStyle;rounded=0;html=1;labelBackgroundColor=none;startFill=1;startSize=4;endArrow=blockThin;endFill=1;endSize=4;jettySize=auto;orthogonalLoop=1;strokeColor=#4284F3;strokeWidth=2;fontSize=12;fontColor=#000000;align=center;dashed=0;" parent="1" source="734" target="735" edge="1">
          <mxGeometry relative="1" as="geometry" />
        </mxCell>
        <mxCell id="734" value="Development&lt;br&gt;Team&lt;br&gt;" style="rounded=1;absoluteArcSize=1;arcSize=2;html=1;strokeColor=none;gradientColor=none;shadow=0;dashed=0;strokeColor=none;fontSize=12;fontColor=#9E9E9E;align=left;verticalAlign=top;spacing=10;spacingTop=-4;fillColor=#F3E5F5;" parent="1" vertex="1">
          <mxGeometry x="29" y="170" width="90" height="120" as="geometry" />
        </mxCell>
        <mxCell id="732" value="" style="strokeColor=#dddddd;fillColor=#ffffff;shadow=1;strokeWidth=1;rounded=1;absoluteArcSize=1;arcSize=2;labelPosition=center;verticalLabelPosition=middle;align=center;verticalAlign=bottom;spacingLeft=0;fontColor=#999999;fontSize=12;whiteSpace=wrap;spacingBottom=2;html=1;" parent="1" vertex="1">
          <mxGeometry x="39" y="210" width="70" height="70" as="geometry" />
        </mxCell>
        <mxCell id="733" value="" style="dashed=0;connectable=0;html=1;fillColor=#757575;strokeColor=none;shape=mxgraph.gcp2.laptop;part=1;" parent="732" vertex="1">
          <mxGeometry x="0.5" width="50" height="33" relative="1" as="geometry">
            <mxPoint x="-25" y="18.5" as="offset" />
          </mxGeometry>
        </mxCell>
        <mxCell id="758" style="edgeStyle=orthogonalEdgeStyle;rounded=0;html=1;labelBackgroundColor=none;startFill=1;startSize=4;endArrow=blockThin;endFill=1;endSize=4;jettySize=auto;orthogonalLoop=1;strokeColor=#4284F3;strokeWidth=2;fontSize=12;fontColor=#000000;align=center;dashed=0;" parent="1" source="735" target="737" edge="1">
          <mxGeometry relative="1" as="geometry" />
        </mxCell>
        <mxCell id="735" value="" style="strokeColor=#dddddd;fillColor=#ffffff;shadow=1;strokeWidth=1;rounded=1;absoluteArcSize=1;arcSize=2;fontSize=10;fontColor=#9E9E9E;align=center;html=1;" parent="1" vertex="1">
          <mxGeometry x="170" y="199" width="123" height="60" as="geometry" />
        </mxCell>
        <mxCell id="759" style="edgeStyle=orthogonalEdgeStyle;rounded=0;html=1;labelBackgroundColor=none;startFill=1;startSize=4;endArrow=blockThin;endFill=1;endSize=4;jettySize=auto;orthogonalLoop=1;strokeColor=#4284F3;strokeWidth=2;fontSize=12;fontColor=#000000;align=center;dashed=0;" parent="1" source="737" target="739" edge="1">
          <mxGeometry relative="1" as="geometry" />
        </mxCell>
        <mxCell id="760" style="edgeStyle=orthogonalEdgeStyle;rounded=0;html=1;labelBackgroundColor=none;startFill=1;startSize=4;endArrow=blockThin;endFill=1;endSize=4;jettySize=auto;orthogonalLoop=1;strokeColor=#4284F3;strokeWidth=2;fontSize=12;fontColor=#000000;align=center;dashed=0;" parent="1" source="737" target="741" edge="1">
          <mxGeometry relative="1" as="geometry">
            <Array as="points">
              <mxPoint x="539" y="333" />
              <mxPoint x="539" y="238" />
            </Array>
          </mxGeometry>
        </mxCell>
        <mxCell id="737" value="" style="strokeColor=#dddddd;fillColor=#ffffff;shadow=1;strokeWidth=1;rounded=1;absoluteArcSize=1;arcSize=2;fontSize=10;fontColor=#9E9E9E;align=center;html=1;" parent="1" vertex="1">
          <mxGeometry x="329" y="303.5" width="160" height="60" as="geometry" />
        </mxCell>
        <mxCell id="738" value="&lt;font color=&quot;#000000&quot;&gt;Spinnaker&lt;/font&gt;&lt;br&gt;Compute Engine" style="dashed=0;connectable=0;html=1;fillColor=#5184F3;strokeColor=none;shape=mxgraph.gcp2.hexIcon;prIcon=compute_engine;part=1;labelPosition=right;verticalLabelPosition=middle;align=left;verticalAlign=middle;spacingLeft=5;fontColor=#999999;fontSize=12;" parent="737" vertex="1">
          <mxGeometry y="0.5" width="44" height="39" relative="1" as="geometry">
            <mxPoint x="5" y="-19.5" as="offset" />
          </mxGeometry>
        </mxCell>
        <mxCell id="762" style="edgeStyle=orthogonalEdgeStyle;rounded=0;html=1;labelBackgroundColor=none;startFill=1;startSize=4;endArrow=blockThin;endFill=1;endSize=4;jettySize=auto;orthogonalLoop=1;strokeColor=#4284F3;strokeWidth=2;fontSize=12;fontColor=#000000;align=center;dashed=0;" parent="1" source="739" target="741" edge="1">
          <mxGeometry relative="1" as="geometry">
            <Array as="points">
              <mxPoint x="579" y="430" />
              <mxPoint x="579" y="260" />
            </Array>
          </mxGeometry>
        </mxCell>
        <mxCell id="763" style="edgeStyle=orthogonalEdgeStyle;rounded=0;html=1;labelBackgroundColor=none;startFill=1;startSize=4;endArrow=blockThin;endFill=1;endSize=4;jettySize=auto;orthogonalLoop=1;strokeColor=#4284F3;strokeWidth=2;fontSize=12;fontColor=#000000;align=center;dashed=0;" parent="1" source="739" target="743" edge="1">
          <mxGeometry relative="1" as="geometry">
            <Array as="points">
              <mxPoint x="599" y="460" />
              <mxPoint x="599" y="339" />
            </Array>
          </mxGeometry>
        </mxCell>
        <mxCell id="764" style="edgeStyle=orthogonalEdgeStyle;rounded=0;html=1;labelBackgroundColor=none;startFill=1;startSize=4;endArrow=blockThin;endFill=1;endSize=4;jettySize=auto;orthogonalLoop=1;strokeColor=#4284F3;strokeWidth=2;fontSize=12;fontColor=#000000;align=center;dashed=0;" parent="1" source="739" target="745" edge="1">
          <mxGeometry relative="1" as="geometry">
            <Array as="points">
              <mxPoint x="598" y="460" />
              <mxPoint x="598" y="481" />
            </Array>
          </mxGeometry>
        </mxCell>
        <mxCell id="739" value="" style="strokeColor=#dddddd;fillColor=#ffffff;shadow=1;strokeWidth=1;rounded=1;absoluteArcSize=1;arcSize=2;fontSize=10;fontColor=#9E9E9E;align=center;html=1;" parent="1" vertex="1">
          <mxGeometry x="329" y="411" width="160" height="70" as="geometry" />
        </mxCell>
        <mxCell id="740" value="&lt;font color=&quot;#000000&quot;&gt;Cloud Image&lt;/font&gt;&lt;br&gt;Compute Engine&lt;hr&gt;&lt;font style=&quot;font-size: 11px&quot;&gt;Build Artifact&lt;/font&gt;" style="dashed=0;connectable=0;html=1;fillColor=#5184F3;strokeColor=none;shape=mxgraph.gcp2.hexIcon;prIcon=compute_engine;part=1;labelPosition=right;verticalLabelPosition=middle;align=left;verticalAlign=top;spacingLeft=5;fontColor=#999999;fontSize=12;spacingTop=-8;" parent="739" vertex="1">
          <mxGeometry width="44" height="39" relative="1" as="geometry">
            <mxPoint x="5" y="7" as="offset" />
          </mxGeometry>
        </mxCell>
        <mxCell id="741" value="" style="shape=mxgraph.gcp2.doubleRect;strokeColor=#dddddd;fillColor=#ffffff;shadow=1;strokeWidth=1;fontSize=10;fontColor=#9E9E9E;align=center;html=1;" parent="1" vertex="1">
          <mxGeometry x="619" y="199" width="158" height="78" as="geometry" />
        </mxCell>
        <mxCell id="742" value="&lt;font color=&quot;#000000&quot;&gt;Test Instances&lt;/font&gt;&lt;br&gt;Compute Engine&lt;hr&gt;&lt;font style=&quot;font-size: 11px&quot;&gt;Build Artifact&lt;/font&gt;" style="dashed=0;connectable=0;html=1;fillColor=#5184F3;strokeColor=none;shape=mxgraph.gcp2.hexIcon;prIcon=compute_engine;part=1;labelPosition=right;verticalLabelPosition=middle;align=left;verticalAlign=top;spacingLeft=5;fontColor=#999999;fontSize=12;spacingTop=-8;" parent="741" vertex="1">
          <mxGeometry width="44" height="39" relative="1" as="geometry">
            <mxPoint x="5" y="7" as="offset" />
          </mxGeometry>
        </mxCell>
        <mxCell id="743" value="" style="shape=mxgraph.gcp2.doubleRect;strokeColor=#dddddd;fillColor=#ffffff;shadow=1;strokeWidth=1;fontSize=10;fontColor=#9E9E9E;align=center;html=1;" parent="1" vertex="1">
          <mxGeometry x="620" y="300" width="158" height="78" as="geometry" />
        </mxCell>
        <mxCell id="744" value="&lt;font color=&quot;#000000&quot;&gt;Prod Instances&lt;/font&gt;&lt;br&gt;Compute Engine&lt;hr&gt;&lt;font style=&quot;font-size: 11px&quot;&gt;Autoscaler&lt;/font&gt;" style="dashed=0;connectable=0;html=1;fillColor=#5184F3;strokeColor=none;shape=mxgraph.gcp2.hexIcon;prIcon=compute_engine;part=1;labelPosition=right;verticalLabelPosition=middle;align=left;verticalAlign=top;spacingLeft=5;fontColor=#999999;fontSize=12;spacingTop=-8;" parent="743" vertex="1">
          <mxGeometry width="44" height="39" relative="1" as="geometry">
            <mxPoint x="5" y="7" as="offset" />
          </mxGeometry>
        </mxCell>
        <mxCell id="745" value="" style="shape=mxgraph.gcp2.doubleRect;strokeColor=#dddddd;fillColor=#ffffff;shadow=1;strokeWidth=1;fontSize=10;fontColor=#9E9E9E;align=center;html=1;" parent="1" vertex="1">
          <mxGeometry x="618" y="470" width="158" height="78" as="geometry" />
        </mxCell>
        <mxCell id="746" value="&lt;font color=&quot;#000000&quot;&gt;Prod Instances&lt;/font&gt;&lt;br&gt;Compute Engine&lt;hr&gt;&lt;font style=&quot;font-size: 11px&quot;&gt;Autoscaler&lt;/font&gt;" style="dashed=0;connectable=0;html=1;fillColor=#5184F3;strokeColor=none;shape=mxgraph.gcp2.hexIcon;prIcon=compute_engine;part=1;labelPosition=right;verticalLabelPosition=middle;align=left;verticalAlign=top;spacingLeft=5;fontColor=#999999;fontSize=12;spacingTop=-8;" parent="745" vertex="1">
          <mxGeometry width="44" height="39" relative="1" as="geometry">
            <mxPoint x="5" y="7" as="offset" />
          </mxGeometry>
        </mxCell>
        <mxCell id="765" style="edgeStyle=orthogonalEdgeStyle;rounded=0;html=1;labelBackgroundColor=none;startFill=1;startSize=4;endArrow=blockThin;endFill=1;endSize=4;jettySize=auto;orthogonalLoop=1;strokeColor=#9E9E9E;strokeWidth=2;fontSize=12;fontColor=#000000;align=center;dashed=0;" parent="1" source="747" target="743" edge="1">
          <mxGeometry relative="1" as="geometry">
            <Array as="points">
              <mxPoint x="809" y="410" />
              <mxPoint x="809" y="339" />
            </Array>
          </mxGeometry>
        </mxCell>
        <mxCell id="766" style="edgeStyle=orthogonalEdgeStyle;rounded=0;html=1;labelBackgroundColor=none;startFill=1;startSize=4;endArrow=blockThin;endFill=1;endSize=4;jettySize=auto;orthogonalLoop=1;strokeColor=#9E9E9E;strokeWidth=2;fontSize=12;fontColor=#000000;align=center;dashed=0;" parent="1" source="747" target="745" edge="1">
          <mxGeometry relative="1" as="geometry">
            <Array as="points">
              <mxPoint x="808" y="410" />
              <mxPoint x="808" y="509" />
            </Array>
          </mxGeometry>
        </mxCell>
        <mxCell id="747" value="" style="strokeColor=#dddddd;fillColor=#ffffff;shadow=1;strokeWidth=1;rounded=1;absoluteArcSize=1;arcSize=2;fontSize=10;fontColor=#9E9E9E;align=center;html=1;" parent="1" vertex="1">
          <mxGeometry x="836.5" y="375" width="130" height="60" as="geometry" />
        </mxCell>
        <mxCell id="748" value="Cloud Load&#xa;Balancing" style="dashed=0;connectable=0;html=1;fillColor=#5184F3;strokeColor=none;shape=mxgraph.gcp2.hexIcon;prIcon=cloud_load_balancing;part=1;labelPosition=right;verticalLabelPosition=middle;align=left;verticalAlign=middle;spacingLeft=5;fontColor=#999999;fontSize=12;" parent="747" vertex="1">
          <mxGeometry y="0.5" width="44" height="39" relative="1" as="geometry">
            <mxPoint x="5" y="-19.5" as="offset" />
          </mxGeometry>
        </mxCell>
        <mxCell id="767" style="edgeStyle=orthogonalEdgeStyle;rounded=0;html=1;labelBackgroundColor=none;startFill=1;startSize=4;endArrow=blockThin;endFill=1;endSize=4;jettySize=auto;orthogonalLoop=1;strokeColor=#9E9E9E;strokeWidth=2;fontSize=12;fontColor=#000000;align=center;dashed=0;" parent="1" source="749" target="747" edge="1">
          <mxGeometry relative="1" as="geometry" />
        </mxCell>
        <mxCell id="749" value="" style="strokeColor=#dddddd;fillColor=#ffffff;shadow=1;strokeWidth=1;rounded=1;absoluteArcSize=1;arcSize=2;labelPosition=center;verticalLabelPosition=middle;align=center;verticalAlign=bottom;spacingLeft=0;fontColor=#999999;fontSize=12;whiteSpace=wrap;spacingBottom=2;html=1;" parent="1" vertex="1">
          <mxGeometry x="1028" y="320" width="70" height="69" as="geometry" />
        </mxCell>
        <mxCell id="750" value="" style="dashed=0;connectable=0;html=1;fillColor=#757575;strokeColor=none;shape=mxgraph.gcp2.laptop;part=1;" parent="749" vertex="1">
          <mxGeometry x="0.5" width="50" height="33" relative="1" as="geometry">
            <mxPoint x="-25" y="18.5" as="offset" />
          </mxGeometry>
        </mxCell>
        <mxCell id="768" style="edgeStyle=orthogonalEdgeStyle;rounded=0;html=1;labelBackgroundColor=none;startFill=1;startSize=4;endArrow=blockThin;endFill=1;endSize=4;jettySize=auto;orthogonalLoop=1;strokeColor=#9E9E9E;strokeWidth=2;fontSize=12;fontColor=#000000;align=center;dashed=0;" parent="1" source="751" target="747" edge="1">
          <mxGeometry relative="1" as="geometry" />
        </mxCell>
        <mxCell id="751" value="" style="strokeColor=#dddddd;fillColor=#ffffff;shadow=1;strokeWidth=1;rounded=1;absoluteArcSize=1;arcSize=2;labelPosition=center;verticalLabelPosition=middle;align=center;verticalAlign=bottom;spacingLeft=0;fontColor=#999999;fontSize=12;whiteSpace=wrap;spacingBottom=2;html=1;" parent="1" vertex="1">
          <mxGeometry x="1028" y="405" width="70" height="65" as="geometry" />
        </mxCell>
        <mxCell id="752" value="" style="dashed=0;connectable=0;html=1;fillColor=#757575;strokeColor=none;shape=mxgraph.gcp2.mobile_devices;part=1;" parent="751" vertex="1">
          <mxGeometry x="0.5" width="50" height="36.5" relative="1" as="geometry">
            <mxPoint x="-25" y="16.75" as="offset" />
          </mxGeometry>
        </mxCell>
        <mxCell id="771" value="1" style="shape=ellipse;fillColor=#ffffff;strokeColor=#BDBDBD;strokeWidth=2;shadow=0;gradientColor=none;fontColor=#757575;align=center;html=1;fontStyle=1;spacingTop=-1;" parent="1" vertex="1">
          <mxGeometry x="131.5" y="220" width="20" height="20" as="geometry" />
        </mxCell>
        <mxCell id="772" value="2" style="shape=ellipse;fillColor=#ffffff;strokeColor=#BDBDBD;strokeWidth=2;shadow=0;gradientColor=none;fontColor=#757575;align=center;html=1;fontStyle=1;spacingTop=-1;" parent="1" vertex="1">
          <mxGeometry x="398.5" y="268" width="20" height="20" as="geometry" />
        </mxCell>
        <mxCell id="773" value="3" style="shape=ellipse;fillColor=#ffffff;strokeColor=#BDBDBD;strokeWidth=2;shadow=0;gradientColor=none;fontColor=#757575;align=center;html=1;fontStyle=1;spacingTop=-1;" parent="1" vertex="1">
          <mxGeometry x="398.5" y="374.5" width="20" height="20" as="geometry" />
        </mxCell>
        <mxCell id="774" value="4" style="shape=ellipse;fillColor=#ffffff;strokeColor=#BDBDBD;strokeWidth=2;shadow=0;gradientColor=none;fontColor=#757575;align=center;html=1;fontStyle=1;spacingTop=-1;" parent="1" vertex="1">
          <mxGeometry x="505" y="420" width="20" height="20" as="geometry" />
        </mxCell>
        <mxCell id="775" value="5" style="shape=ellipse;fillColor=#ffffff;strokeColor=#BDBDBD;strokeWidth=2;shadow=0;gradientColor=none;fontColor=#757575;align=center;html=1;fontStyle=1;spacingTop=-1;" parent="1" vertex="1">
          <mxGeometry x="502.5" y="323.5" width="20" height="20" as="geometry" />
        </mxCell>
        <mxCell id="776" value="6" style="shape=ellipse;fillColor=#ffffff;strokeColor=#BDBDBD;strokeWidth=2;shadow=0;gradientColor=none;fontColor=#757575;align=center;html=1;fontStyle=1;spacingTop=-1;" parent="1" vertex="1">
          <mxGeometry x="504" y="451" width="20" height="20" as="geometry" />
        </mxCell>
        <mxCell id="779" value="" style="fillColor=#ffffff;strokeColor=#BDBDBD;strokeWidth=1;shadow=0;gradientColor=none;fontSize=10;fontColor=#9E9E9E;align=center;html=1;" parent="1" vertex="1">
          <mxGeometry x="250" y="620" width="600" height="70" as="geometry" />
        </mxCell>
        <mxCell id="780" value="1 Commit code" style="strokeColor=none;fillColor=none;fontColor=#757575;align=left;html=1;fontStyle=0;spacingLeft=5;fontSize=11;verticalAlign=top;whiteSpace=wrap;spacingRight=5;" parent="779" vertex="1">
          <mxGeometry width="200" height="30" relative="1" as="geometry" />
        </mxCell>
        <mxCell id="781" value="2 Detect code change" style="strokeColor=none;fillColor=none;fontColor=#757575;align=left;html=1;fontStyle=0;spacingLeft=5;fontSize=11;verticalAlign=top;whiteSpace=wrap;spacingRight=5;" parent="779" vertex="1">
          <mxGeometry width="200" height="30" relative="1" as="geometry">
            <mxPoint y="30" as="offset" />
          </mxGeometry>
        </mxCell>
        <mxCell id="782" value="3 Build immutable image" style="strokeColor=none;fillColor=none;fontColor=#757575;align=left;html=1;fontStyle=0;spacingLeft=5;fontSize=11;verticalAlign=top;whiteSpace=wrap;spacingRight=5;" parent="779" vertex="1">
          <mxGeometry width="200" height="30" relative="1" as="geometry">
            <mxPoint x="200" as="offset" />
          </mxGeometry>
        </mxCell>
        <mxCell id="783" value="4 Launch test instance from image" style="strokeColor=none;fillColor=none;fontColor=#757575;align=left;html=1;fontStyle=0;spacingLeft=5;fontSize=11;verticalAlign=top;whiteSpace=wrap;spacingRight=5;" parent="779" vertex="1">
          <mxGeometry width="200" height="30" relative="1" as="geometry">
            <mxPoint x="200" y="30" as="offset" />
          </mxGeometry>
        </mxCell>
        <mxCell id="784" value="5 Run tests" style="strokeColor=none;fillColor=none;fontColor=#757575;align=left;html=1;fontStyle=0;spacingLeft=5;fontSize=11;verticalAlign=top;whiteSpace=wrap;spacingRight=5;" parent="779" vertex="1">
          <mxGeometry width="200" height="30" relative="1" as="geometry">
            <mxPoint x="400" as="offset" />
          </mxGeometry>
        </mxCell>
        <mxCell id="785" value="6 Perform rolling update of image to autoscaler" style="strokeColor=none;fillColor=none;fontColor=#757575;align=left;html=1;fontStyle=0;spacingLeft=5;fontSize=11;verticalAlign=top;whiteSpace=wrap;spacingRight=5;" parent="779" vertex="1">
          <mxGeometry width="200" height="30" relative="1" as="geometry">
            <mxPoint x="400" y="30" as="offset" />
          </mxGeometry>
        </mxCell>
        <mxCell id="_XmyGFpSC11JOnLmXMT0-786" value="BitBucket" style="shape=image;imageAspect=0;aspect=fixed;verticalLabelPosition=middle;verticalAlign=middle;dashed=1;dashPattern=1 2;image=data:image/jpeg,/9j/4AAQSkZJRgABAQEASABIAAD/2wBDAAMCAgICAgMCAgIDAwMDBAYEBAQEBAgGBgUGCQgKCgkICQkKDA8MCgsOCwkJDRENDg8QEBEQCgwSExIQEw8QEBD/2wBDAQMDAwQDBAgEBAgQCwkLEBAQEBAQEBAQEBAQEBAQEBAQEBAQEBAQEBAQEBAQEBAQEBAQEBAQEBAQEBAQEBAQEBD/wAARCAEEAQQDAREAAhEBAxEB/8QAHQABAAEEAwEAAAAAAAAAAAAAAAQBBQgJAwYHAv/EAEsQAAEDAgIECQcJBQUJAAAAAAABAgMEBQYRBwgSVxMVGCFRYZWh0xQxQaWx0uMJFhdicZKTotEiI0JHwTJVcoGRREVGUlRjsrPh/8QAHAEBAAICAwEAAAAAAAAAAAAAAAEHBggCBAUD/8QAPREBAAECAQYLCAIBAwUBAAAAAAECAwQFERdUkaIGBxITFDFCktHh4hUhQVFSobHBU2RiMmFyInGBgvDx/9oADAMBAAIRAxEAPwDamAAh11B5a6LN+y2PPPm51zy/QD6httHD/ZhRy9LucCSjWt5mtRPsQCoAAAAAAAAAAAAAAAAAAAAAAAAAAcclPBKmUkLHfagEGossD0VYHLG7oXnQC5AAAAAAAAAAAAAAAAAAAAAAAAAAAAAAAAAAAAAAAAAAh0Fc6t2l8n4NrfTtZ5r/AKATAAAAAAAAAAAAAAAAAAAAAAAAAAAAAAAAAAAUdnkuSZr6EAtLr4rXK11EqKi5L+3/APAJtth4GjjblzuTaX/MCUAAAAAAAAAAAAAAAAAAAAAAAAAAAAAAAAAAABYLrTObWOcxvM9EcBfmojWo1PQmQFQAAAAAAAAAAAAAAAAAAAAAAAAAAAAAAAAAAAOKWBsrtpUz5sgOUAAAAAAAAAAAAAAAAAAAAAAAAAAAAAAAAAAAAAAAAAAAAAAAAAAAAAAAAAAAAAAAAAAAAAAAAAAAAAAAAAALTivFFnwXh2vxRf6ngKC3RLNM9EzXLzIiJ6VVVRETpU7mT8BfyniqMJhoz11zmj/75Q62MxdrA2KsRenNTTGeWMtXr5UDaiRtDo5qHwI5UY6W4Na5U6VRGKifZmpa9vikuTTHOYqM/wDtT7vzCv6+MOiKp5Fic3/LycXL0j3av7TTwznoknWtz1OOkSNX3vI5eke7V/aaeGNEk61ueo0iRq+95HL0j3av7TTwxoknWtz1GkSNX3vI5eke7V/aaeGNEk61ueo0iRq+95HL0j3av7TTwxoknWtz1GkSNX3vI5eke7V/aaeGNEk61ueo0iRq+95HL0j3av7TTwxoknWtz1GkSNX3vI5eke7V/aaeGNEk61ueo0iRq+95HL0j3av7TTwxoknWtz1GkSNX3vI5eke7V/aaeGNEk61ueo0iRq+95HL0j3av7TTwxoknWtz1GkSNX3vI5eke7V/aaeGNEk61ueo0iRq+95HL0j3av7TTwxoknWtz1GkSNX3vI5eke7V/aaeGNEk61ueo0iRq+95HL0j3av7TTwxoknWtz1GkSNX3vI5eke7V/aaeGNEk61ueo0iRq+95HL0j3av7TTwxoknWtz1GkSNX3vI5eke7V/aaeGNEk61ueo0iRq+95HL0j3av7TTwxoknWtz1GkSNX3vJ6Loa1p8NaV7/APNWqsk1kukrHPpWvnSWOo2Uzc1HIiZOREVclTnRF5zGOE3ADFcH8N0yi5Fy3HX7s0xn6pze/wBz3Mh8LsPli90aqiaK56vfnifN7gYAy8AAAAAAAAAAAHmOstaHXnQhiqnjRVdBStqkRP8AtSNevc1TLOA+IjDZfw1U/Gc3eiY/bH+FNmb+SL1MfCM+yYlrfNoVDgAAAAAAAAAAAAAAAAAAAAAHr2qjaHXbTlYXJns0LaiscqehGxORO9yGF8YOIjD8H73+XJp2zHgyfgfZ57LFr/HPOyGxA1mXiAAAAAAAAAAAC04stTb7he8WV7dpK+hnpsv8cat/qdzJ+InCYu1fjs1UzsmJdbGWekYe5antRMbYaqZI3QyOhemTo3K1ydCpzKbgxVFUcqPi1xmJpnNL5CAAAAAAAAAAAAAAAAAAAAAGS+otZvKcdX++OZmlBbGwNXodLIi+yNSq+NfE83k6xh47Vefux5s/4v7HLxl299NObbPkzXKGWyAAAAAAAAAAAABq60pWb5vaSMT2XZ2W0t1qWNT6qyKre5UNt8g4rpuS8Pf+qinbm97XjK9jo2PvWvlVP5dWPWecAAAAAAAAAAAAAAAAAAAAAzT1FLN5PgvEV9cznrbiyna7pbFGi+2RSiuNjE8vHWMPHZpme9Pktfi+scnCXb31VZtkebJsqdYIAAAAAAAAAAAAGvXW3s3FGnC8StZssuMNPWN61dGjXfmYpstxd4rpOQLUT10TVT988faVIcM7HM5XuT9URP2zfp42ZuxYAAAAAAAAAAAAAAAAAAAABsO1TbNxPoOsb1bsvuD5613XtSKiL91rTWjjDxPSeEF6PhRyadkR+5XhwOscxki3P1Z52y9gMJZQAAAAAAAAAAAABhjr22bgMWYav7WZJV0EtK53Sscm0ndIXpxTYnl4LEYaezVE7YzfpVPGFY5OJs3vnTMbJ82L5bKvQAAAAAAAAAAAAAAAAAAAHP6POSNpOjSzJh7R5huyo3ZWjtdNG5PrcGm135mo2XMT0zKeIv8A1V1T95zNiclWOjYGza+VMfh2U8p3wAAAAAAAAAAAAMbNeazLV6PbLe2szW3XTg3Ll5myxuT2saWnxU4rm8p3sPPboz92Y8ZYFxgWOXgbd76avzHkwkL6VIAAAADlpqaorKiKkpIHzTzPSOONjVc57lXJERE86qpxrrpt0zXXOaI98z8nKmmquqKaYzzLsv0VaTd3uIuzZvdPL9v5J1m336fF3/Y+UP4K+7PgfRVpN3fYi7Nm90e38k6zb79Piex8ofwV92fA+irSbu+xF2bN7o9v5J1m336fE9j5Q/gr7s+B9FWk3d9iLs2b3R7fyTrNvv0+J7Hyh/BX3Z8D6KtJu77EXZs3uj2/knWbffp8T2PlD+Cvuz4H0VaTd32IuzZvdHt/JOs2+/T4nsfKH8FfdnwWjEGGcRYTZDJimxV9obUq5IVrqd0CSKnnRu0iZ5Zp5uk7WFyjg8dMxhrtNebr5MxObY+F/BYnC5pv25pz9WeJhZeMKD/raf8AEb+p3HWzSpxjb0/2+n/Fb+oM0qcZ21P94U34rf1ByZ+RxpbP7xpfxm/qDkz8lONbX/eVL+M39QcmfkvOC46DEWMLHYYa2nkfcbjT0yNbK1VXbkanmz6zpZSxMYTB3sRPZpqnZEu1gsPViMTbtZv9VURtltdYxsbGxsTJrUREToRDUCZmqc8tjIjNGaH0QkAAAAAAAAAAAADyjWksvHWg/EbUZtPoo4q1nVwcjVX8u0ZjwBxXReEFifhVM07Yn9sb4XWOfyRej5Zp2TDXQbOKLAAAABJtldLa7lSXOBypJSTxzsVPQ5jkcnsPlftRftVWquqqJjbGZ9LVybNym5HXExOxtatNfFdbXR3SBUWOsp46hip/yvajk9pp7iLM4e9XZq66ZmNk5myFm5F63TcjqmInalnxfQAAAAGAHykd/wDK8bYTwwx+baC2zVj29DppNlO6IvPiowvIwV/Ez2qojZGf9qu4e3+VibVmPhTM7Z8mGskaFrMEzoz2dQSjSRp0EJhGkj6g5OBUyA9v1LMOriTWVwZAse0yhqJbi/mzySGJ70X7yNMT4cYnouQcRV84inbMR+HvcGbPP5UtR8pz7IztvhrGuoAAAAAAAAAAAAABY8c2ht/wXfbI5u15dbqiBE63RuRO/I9DJOJ6Hj7OIjs1UzsmHTyhZ6ThLtn6qZj7NVytcxVY5MnNXJftNvc+f3w1zzZvcoAAAAAGyfV1v3zi0L4VrnSbUkNElJIuf8ULlj9jUNWuGmE6Fl3E246pq5Uf+3v/AGvrgziOk5JsV/GIzbPd+no5i73gAAAAautdi/cf6wuIGNftR2uKmt7OrYiRzk+89xstxfYXo2QLMz11Z6ts+77Qpbhbf5/K1yPpzRsjxeByMM1Y2iyMOKYR3sISjSMDlEosjAllz8mhh3jDTFfcRPZm2z2NzGrl5nzSsan5WvKy40sTzWS7diO3X9oif3mZpwHs8vHV3fpp/Mw2WlCLUAAAAAAAAAAAAAAUVEVMlTNFA1Z6Q7MuHse4isat2UorpUwtT6qSOy7sjbvI2J6Zk6xiPqopn7Q11ynY6Njbtn6apj7uvHpOiAAAADOHUev3l+jW6WJ7832q6Oc1OhkrEcn5keUDxq4Tmsq28RHbo+9MzH4zLd4AYjnMBXZns1faY/8A1kaVgzsAAAKKqIiqq5InOo6xp40rXtcU6ScU4iV20lwu9VM1fqrK7Z7sjbjI2G6Fk6xh/popj7Q18yjf6TjLt751TP3dNkYem6iNIwhKLIwhyhHkYQlGkYEw2B/Jh4cSmwnjXFT48lrLhT0LHfVijV698qFJca+J5WJw+Gj4UzVtnN+ll8BLOazevfOYjZGf9s2ypGfAAAAAAAAAAAAAAAGu3WrsvE2nG/7LcmV6QVrevbjbn+ZHGzXF/iuk8H7Hzpz07Jn9KN4YWOYyxd/yzTtjxeRmZsZAAAABk3qK37yXGeIcOPkybX29lSxvS+J+S90i/wChVPGxhOcwNjFR2apj/wAVR4wsDi+xHIxd2xPapidk+bNMohbAAAAdd0jXxuGcAYjxA52zxfa6qoav1mxOVO/I9HJGG6blCxh/qrpjbMOnlG/0bCXb300zP2aeZUc9Ve9c3OXNV6zbrNm9zXvrRZGBMIsjAlGkYQlGkYQ5I0jCEtpmoNh1bFq4WiqfHsvvFbV3BetFkWNvdGhrlxj4npGXq6Y7FNNP2z/tcPA+zzWS6avqmZ++b9MizBGUgAAAAAAAAAAAAAAGFOvTZvJsdWC+tZklfbHQOXpdFIq+yRC+eKjE85k+/h57NefvR5Km4wbHIxlq9HapzbJ82M5ajAAAAAAeq6r1+4g03Yckc/ZjrpJKB/XwrFRv5tkxDh5hOmZAvxHXTEVd2fDOyPgliOj5XtT9WenbHi2MmsK9QAAA8X1wb7xHoAxGjX7Mlx4CgZ18JK3aT7qOM04v8L0rL9n5U56tkT+8zGuF1/mMk3f8s0bZ8GsSRhswpOEeRhCUaRgTEosjA5I0jCJTCNI3JFIS3KaBsPfNTQxgqwKzZdS2Sk206HujR7vzOU1Q4SYnpmV8Te+ddX2nNH4Xzkaz0fJ9m38qY+8Z3fDxXpAAAAAAAAAAAAAAAGMmvVZvKcFYevzWZrQ3J9O5ehssar7Y0LX4p8VyMffw89qiJ7s+av8AjBscrCWr301ZtseTCwvZU4AAAALnhe7yWDEtqvkTsnW+tgqUX/A9Hf0Orj8NGMwt3Dz26ZjbGZ2MJenDYii9HZmJ2S2r088dVTxVMLtqOVjXtXpRUzQ0+rom3VNFXXDY6mqK6Yqj4uQ4uQAAxU+UDvnk+BMN4cY/Jbhc31L29LYY1T2yIWvxT4Xl46/iZ7NMR3p8mAcP7/Jwtqz9VWfZHmwPkj6i9VVoz2ByiUeRhCUWRgTCNIwOSXhmyyYgxRZ7FE3afca+npETp4SRrf6nVxl6MNh7l6ezTM7Izvth7c3rtNuPjMRtluvpaeOjpYaSFuUcEbY2J0IiZJ7DUCuublU1z1z72wtNMUUxTHwcpxcgAAAAAAAAAAAAAADyDWwsvHGg6+ua3afb3QVrerYkai/lc4zbi9xXRuEFmJ6quVTtif3EMX4Y2OfyPd/xzTsnwa8DZdR4AAAAAHYo9IuP4Y2QxY3vzGMajWtbcZkRqJ5kRNrzHm1ZFybVM1VYejPP+NPg70ZTxtMZovVd6fEdpI0iKnNjvEHaU3vEexMmavR3KfBPtTHfzVd6fFHfpJ0jJ/x7iHtOb3h7EyZq9Hcp8D2pjv5qu9Pi4H6StJCebH2Iu05veHsTJmr0dynwcvamO/mq70+Kx33EeI8RrEuIL/cbmsCKkS1lS+bg8/Ps7SrlnknmOzhsFhsHn6Nbpoz9eaIjPsfC9ir+Jzc9XNWb5zM/lY5GHafJFkYQlGewhMI8jAlFkYHKHp+qvh35x6wmCqJ0e2yC4JWvTL0QMdJ7WoYxwzxPRMhYmv505u9Ob9vc4OWefypZp+U59nvbaTVteQAAAAAAAAAAAAAAAA63pIsyYh0f4jsit2lrLXUxNT6yxrs9+R6mRMT0LKVjEfTXTP3h0MqWOk4K7Z+dM/hq1505lTn9Jt012CAAAAAAAB8PZmBGkYEo8jAlFkZ1BMI0jCHJFkYEo72EOSNIwDJX5PvD3GOmysvTmZss9mnkRcvM+R7I07lcVvxoYnmcjU2frriNkTPgzTgPZ5zKU3Pppn75obGzXxbgAAAAAAAAAAAAAAAA+Xta9jmPTNrkVFTpQmJmJzwiYzxmlqtxraHWDGF8sbm7K0FxqKfLqbI5E7sjb7JmJjGYKziI7VNM7Yhrnj7PRsVcsz2apjZKynedQAAAAAAAA4pGAR3s6gmJRpGByRpGBMSiyMISiyMCYR3sIcmbPyceH+DoMaYneznlmpaCN2Xoa173f+TSluNnE568Nho+VVX4iPxKyuAFn/pv3v8AtH5lmgU6sYAAAAAAAAAAAAAAAAANcutBZeJNOGJY0bssrJY61vXwkbXKv3to2e4B4rpXB/Dz9MTTsmY/CiuFljmMr3o+cxO2HlZl7HAAAAAAAAAqZgcMjAIz2ByhGkZ1BKNIzqCYRZGEJRpGBMNjWonYeKNBMNwdHsvu9zqqvPLztRUjT/1qa68ZmJ5/Lk2/oppj9/tcfAmxzWS4r+qqZ/X6ZEFesvAAAAAAAAAAAAAAAAADCHXksvkekaz3prcm3G1Ixy9L4pHJ7HNL94qsVzmS7tiexX9qojwlUfD+xyMfbux2qfxPmxvLQYGAAAAAAAAAKOTNAOCRgEeRnUHKEWRgSjSMCYlFlZlmQltZ1fLCuG9CmDbS5my9tphmemX8UqcIve9TVThXiumZbxN2OrlzGz3fpfeQLHR8mWLf+MTt9/7ehGPPYAAAAAAAAAAAAAAAAADF3XtsvDYYwzf2s56SulpXu6pGbSd8ZbfFNiuTi8Rhp7VMTsnN+1d8YVjlYezf+UzG2PJhmXkqsAAAAAAAAAAPl7c0AjyMAjyMDkjSMCS3W2S6XSjtkLVV9ZUR07UT0q9yNT2nyv3YsWqrs9VMTOyM762qJu100R1zMRtbf7ZQx2y20lthTKOkgjgYiehGtRE9hp5fuzfu1XauuqZna2MtURaopoj4REJR8n0AAAAAAAAAAAAAAAAADrGkbR9YNJ2FKrCWImSeTVCteyWJcpIZW/2XtVfSneiqh62Rcs4nIOMpxuF/1R8J6pieuJeflPJtnK2Gqw1/qnbE/OGOcmoXTbbuC0lSozP9lHWxFXLr/eFnxxt1ZvfhYz/8/SwWeLunP7sRu+b55BcW8t/ZieITpbnVd/0o0dxrG75nILi3lv7MTxBpbnVd/wBJo7jWN3zOQXFvLf2YniDS3Oq7/pNHcaxu+ZyC4t5b+zE8QaW51Xf9Jo7jWN3zfC6ha582kv1X8QnS5Gqb/pRo7/sbvmcgt28v1X8QnS5Gqb/pRo7/ALG75nILdvL9V/EGlyNU3/SaO/7G75nILdvL9V/EGlyNU3/SaO/7G75nILdvL9V/EGlyNU3/AEmjv+xu+ZyC3by/VfxBpcjVN/0mjv8Asbvm+Xag+1/Mv1X8QaXI1Tf9KdHf9jd83E7UCV38zfVfxCNLn9Tf9Jo8/sbvm43fJ+K7+Z/qr4o0t/1N/wBKdHn9jd83bNF2pLhvAuLaPFmIMVS319tkbPS0yUiQRJK3na9/7TldkvOic3OiHjZd4y8TlTCVYTD2ot8qM0znzzm+MR7ozZ3pZK4EWMBiKcReucvk++IzZoz/AO/vlkuVizkAAAAAAAAAAAAAAAAAAAAAAAAAAAAAAAAAAAAAAAAAAAAAAFFVE86gfFPIksEcifxNRQOQAAAAAAAAAAAAAAAAAAAAAAAAAAAAAAAAAAAC3XCu8nnSNF/hRQKWWoR8CwKv7Ua5p9igXIAAAAAAAAAAAAAAAAAAAAAAAAAAAAAAAAAAFFVGorlXJE51A6xVz+UVD5vQq832AdoAAAAAAAAAAAAAAAAAAAAAAAAAAAAAAAAAAAAAAAACm03NEVUzXzIBUAAAAAAAAAAAAAAAAAAAAAAAAAAAAABRVRqZuVERPSoFQAACmSdADJOgC1XtVasLmqqK3PnTm6P0AjU11rGuRjno9PrJmoF5gldK1Fcic/QBzAAAAAAAAAAAAAAAAAAAAAAAAACirkmYFurbhPBmkaM/zQC0z1dRUL+9lcqdGeSAdnyToAZJ0AMk6AP/2Q==;fontStyle=1;labelPosition=right;align=left;" vertex="1" parent="1">
          <mxGeometry x="170" y="205" width="50" height="50" as="geometry" />
        </mxCell>
      </root>
    </mxGraphModel>
  </diagram>
</mxfile>
